<svg xmlns="http://www.w3.org/2000/svg" width="14.027" height="14.102" viewBox="0 0 14.027 14.102">
  <g id="Group_966" data-name="Group 966" transform="translate(-0.157 0.364)">
    <path id="Path_279" data-name="Path 279" d="M-2035.817,761.94h-2v-3c0-.13.12.049,0,0a2.384,2.384,0,0,0-1,0l-4,4c-.06.06,0-.085,0,0h0c0,.085-.06-.06,0,0l4,5c.061.061-.083,0,0,0,.041,0,.96.016,1,0,.12-.05,0,.13,0,0v-3h2a2.713,2.713,0,0,0,1-1v-2C-2034.817,761.764-2035.64,761.94-2035.817,761.94Z" transform="translate(2043 -754.25)" fill="#007cc5"/>
    <path id="Path_280" data-name="Path 280" d="M-1932.812,690.19l-4-5c-.091-.092.12-.05,0,0s0,.87,0,1v2h-3c-.177,0,0,.823,0,1v2c0,.177-.177,1,0,1h3v2c0,.13-.12.95,0,1,.04.016-.041,0,0,0,.083,0-.061.061,0,0l4-5c.06-.06,1,.085,1,0h0C-1931.812,690.105-1932.752,690.25-1932.812,690.19Zm-4,4v-3c0-.177.177,0,0,0h-3v-2h3c.177,0,0,.177,0,0v-3l4,4Z" transform="translate(1945.995 -685.5)" fill="#007cc5"/>
  </g>
</svg>
