<svg xmlns="http://www.w3.org/2000/svg" width="12.686" height="11.041" viewBox="0 0 12.686 11.041">
  <g id="Path_365" data-name="Path 365" transform="translate(-72.142 -296.916)" fill="#ffd400" stroke-linecap="round" stroke-linejoin="round">
    <path d="M 75.02060699462891 307.3189392089844 L 75.50585174560547 304.7361145019531 C 75.60588073730469 304.2039794921875 75.36618804931641 303.5226135253906 74.94831848144531 303.1512145996094 L 72.93668365478516 301.3607788085938 L 75.76190948486328 300.9855651855469 C 76.31639862060547 300.9121398925781 76.92521667480469 300.5042419433594 77.17787933349609 300.0367736816406 L 78.48540496826172 297.6172485351562 L 79.79241943359375 300.0366821289062 C 80.04505920410156 300.504150390625 80.65384674072266 300.9120178222656 81.20854949951172 300.9855651855469 L 84.03369140625 301.3607482910156 L 82.02175140380859 303.1514282226562 C 81.60435485839844 303.5230712890625 81.36503601074219 304.2043151855469 81.46498870849609 304.7361450195312 L 81.94972229003906 307.3186950683594 L 79.34571838378906 306.0684509277344 C 79.10803985595703 305.9545593261719 78.80262756347656 305.8919067382812 78.48542022705078 305.8919067382812 C 78.16822052001953 305.8919067382812 77.86280822753906 305.9545593261719 77.62545776367188 306.0682983398438 L 75.02060699462891 307.3189392089844 Z" stroke="none"/>
    <path d="M 78.48532104492188 298.6690673828125 L 77.61773681640625 300.2745056152344 C 77.29065704345703 300.8796997070312 76.53768157958984 301.38720703125 75.82773590087891 301.481201171875 L 74.08421325683594 301.7127685546875 L 75.28047943115234 302.7774963378906 C 75.8277587890625 303.263916015625 76.12919616699219 304.1264953613281 75.99726104736328 304.8284301757812 L 75.6943359375 306.4408264160156 L 77.40934753417969 305.6174011230469 C 77.79824066162109 305.4310302734375 78.20916748046875 305.3919067382812 78.48542022705078 305.3919067382812 C 78.76166534423828 305.3919067382812 79.17259979248047 305.4310302734375 79.56212615966797 305.6177062988281 L 81.27619171142578 306.440673828125 L 80.97359466552734 304.8285217285156 C 80.84175109863281 304.1269836425781 81.1427001953125 303.2646484375 81.6893310546875 302.7779541015625 L 82.88614654541016 301.7127380371094 L 81.14283752441406 301.4812316894531 C 80.43251800537109 301.3870544433594 79.67961120605469 300.8795776367188 79.35250091552734 300.2743225097656 L 78.48532104492188 298.6690673828125 M 78.48542785644531 296.915771484375 C 78.60219573974609 296.915771484375 78.71896362304688 296.9976806640625 78.8074951171875 297.1614990234375 L 80.23233032226562 299.7990417480469 C 80.40940856933594 300.1266784667969 80.87852478027344 300.4374389648438 81.27426147460938 300.4898986816406 L 84.46163940429688 300.9131774902344 C 84.85737609863281 300.9656982421875 84.94667816162109 301.2174072265625 84.66027069091797 301.472412109375 L 82.35417175292969 303.5249328613281 C 82.06777191162109 303.7799377441406 81.88864135742188 304.2833251953125 81.95639038085938 304.643798828125 L 82.50045013427734 307.5424499511719 C 82.54954528808594 307.8033142089844 82.44013214111328 307.9568481445312 82.24136352539062 307.9568481445312 C 82.16586303710938 307.9568481445312 82.07748413085938 307.9347229003906 81.97999572753906 307.8878784179688 L 79.12931060791016 306.5191955566406 C 78.95223999023438 306.434326171875 78.71883392333984 306.3919067382812 78.48542022705078 306.3919067382812 C 78.25201416015625 306.3919067382812 78.01860046386719 306.434326171875 77.84152984619141 306.5191955566406 L 74.9908447265625 307.8878784179688 C 74.89337921142578 307.9346923828125 74.80492401123047 307.9568481445312 74.72937774658203 307.9568481445312 C 74.53042602539062 307.9568481445312 74.42076110839844 307.8033447265625 74.46987152099609 307.5424499511719 L 75.01445007324219 304.643798828125 C 75.08220672607422 304.2833251953125 74.90306854248047 303.7799377441406 74.61615753173828 303.5249328613281 L 72.31005096435547 301.472412109375 C 72.02365112304688 301.2174072265625 72.11347198486328 300.9656982421875 72.50920104980469 300.9131774902344 L 75.69607543945312 300.4898986816406 C 76.09231567382812 300.4374389648438 76.56092834472656 300.1266784667969 76.73800659179688 299.7990417480469 L 78.16334533691406 297.1614990234375 C 78.25189208984375 296.9976806640625 78.36865997314453 296.915771484375 78.48542785644531 296.915771484375 Z" stroke="none" fill="#ffd601"/>
  </g>
</svg>
