<svg xmlns="http://www.w3.org/2000/svg" width="12.686" height="11.041" viewBox="0 0 12.686 11.041">
  <g id="Path_369" data-name="Path 369" transform="translate(-72.142 -296.916)" fill="none" stroke-linecap="round" stroke-linejoin="round">
    <path d="M78.163,297.161c.177-.328.467-.328.644,0l1.425,2.638a1.553,1.553,0,0,0,1.042.691l3.187.423c.4.053.485.3.2.559l-2.306,2.053a1.343,1.343,0,0,0-.4,1.119l.544,2.9c.068.36-.166.516-.52.345l-2.851-1.369a1.692,1.692,0,0,0-1.288,0l-2.851,1.369c-.354.17-.589.015-.521-.345l.545-2.9a1.342,1.342,0,0,0-.4-1.119l-2.306-2.053c-.286-.255-.2-.507.2-.559l3.187-.423a1.552,1.552,0,0,0,1.042-.691Z" stroke="none"/>
    <path d="M 78.48532104492188 298.6690673828125 L 77.61773681640625 300.2745056152344 C 77.29065704345703 300.8796997070312 76.53768157958984 301.38720703125 75.82773590087891 301.481201171875 L 74.08421325683594 301.7127685546875 L 75.28047943115234 302.7774963378906 C 75.8277587890625 303.263916015625 76.12919616699219 304.1264953613281 75.99726104736328 304.8284301757812 L 75.6943359375 306.4408264160156 L 77.40934753417969 305.6174011230469 C 77.79824066162109 305.4310302734375 78.20916748046875 305.3919067382812 78.48542022705078 305.3919067382812 C 78.76166534423828 305.3919067382812 79.17259979248047 305.4310302734375 79.56212615966797 305.6177062988281 L 81.27619171142578 306.440673828125 L 80.97359466552734 304.8285217285156 C 80.84175109863281 304.1269836425781 81.1427001953125 303.2646484375 81.6893310546875 302.7779541015625 L 82.88614654541016 301.7127380371094 L 81.14283752441406 301.4812316894531 C 80.43251800537109 301.3870544433594 79.67961120605469 300.8795776367188 79.35250091552734 300.2743225097656 L 78.48532104492188 298.6690673828125 M 78.48542785644531 296.915771484375 C 78.60219573974609 296.915771484375 78.71896362304688 296.9976806640625 78.8074951171875 297.1614990234375 L 80.23233032226562 299.7990417480469 C 80.40940856933594 300.1266784667969 80.87852478027344 300.4374389648438 81.27426147460938 300.4898986816406 L 84.46163940429688 300.9131774902344 C 84.85737609863281 300.9656982421875 84.94667816162109 301.2174072265625 84.66027069091797 301.472412109375 L 82.35417175292969 303.5249328613281 C 82.06777191162109 303.7799377441406 81.88864135742188 304.2833251953125 81.95639038085938 304.643798828125 L 82.50045013427734 307.5424499511719 C 82.54954528808594 307.8033142089844 82.44013214111328 307.9568481445312 82.24136352539062 307.9568481445312 C 82.16586303710938 307.9568481445312 82.07748413085938 307.9347229003906 81.97999572753906 307.8878784179688 L 79.12931060791016 306.5191955566406 C 78.95223999023438 306.434326171875 78.71883392333984 306.3919067382812 78.48542022705078 306.3919067382812 C 78.25201416015625 306.3919067382812 78.01860046386719 306.434326171875 77.84152984619141 306.5191955566406 L 74.9908447265625 307.8878784179688 C 74.89337921142578 307.9346923828125 74.80492401123047 307.9568481445312 74.72937774658203 307.9568481445312 C 74.53042602539062 307.9568481445312 74.42076110839844 307.8033447265625 74.46987152099609 307.5424499511719 L 75.01445007324219 304.643798828125 C 75.08220672607422 304.2833251953125 74.90306854248047 303.7799377441406 74.61615753173828 303.5249328613281 L 72.31005096435547 301.472412109375 C 72.02365112304688 301.2174072265625 72.11347198486328 300.9656982421875 72.50920104980469 300.9131774902344 L 75.69607543945312 300.4898986816406 C 76.09231567382812 300.4374389648438 76.56092834472656 300.1266784667969 76.73800659179688 299.7990417480469 L 78.16334533691406 297.1614990234375 C 78.25189208984375 296.9976806640625 78.36865997314453 296.915771484375 78.48542785644531 296.915771484375 Z" stroke="none" fill="#ffd601"/>
  </g>
</svg>
